<?xml version="1.0" encoding="UTF-8"?>
<svg version="1.1" xmlns="http://www.w3.org/2000/svg" width="2048" height="788">
<path d="M0 0 C22.11 0 44.22 0 67 0 C86.5 27 86.5 27 89.73828125 31.484375 C91.94301203 34.53718117 94.14886583 37.58917179 96.35546875 40.640625 C101.65621811 47.97250262 106.94678705 55.31094636 112.1965332 62.67944336 C115.5674928 67.40635742 118.97022626 72.10990663 122.375 76.8125 C126.62242981 82.68131403 130.83239752 88.57424407 135 94.5 C140.717802 102.62792476 146.52824238 110.68666241 152.35888672 118.73388672 C155.61845318 123.23482333 158.8697262 127.74175435 162.12255859 132.24755859 C164.84069523 136.01207565 167.56081405 139.77512708 170.28515625 143.53515625 C176.0698625 151.52356012 181.8079679 159.54115819 187.48291016 167.60791016 C192.70684801 175.02347058 198.02374589 182.37093182 203.34570312 189.71630859 C206.12918202 193.55879112 208.90874599 197.4040997 211.6875 201.25 C212.23140381 202.00273193 212.77530762 202.75546387 213.33569336 203.53100586 C216.96623345 208.55904845 220.57700519 213.60076953 224.17675781 218.65087891 C227.746522 223.65463854 231.33959646 228.64144437 234.9375 233.625 C235.49373047 234.39585937 236.04996094 235.16671875 236.62304688 235.9609375 C237.14833984 236.68796875 237.67363281 237.415 238.21484375 238.1640625 C238.91275024 239.13013428 238.91275024 239.13013428 239.62475586 240.11572266 C241.06570019 242.09001848 242.53347375 244.04463166 244 246 C244.33 164.82 244.66 83.64 245 0 C270.41 0 295.82 0 322 0 C322 125.4 322 250.8 322 380 C299.89 380 277.78 380 255 380 C241.45945946 361.94594595 241.45945946 361.94594595 236.5 354.5 C232.48138226 348.54469902 228.35643241 342.71278868 224 337 C219.04866775 330.50709201 214.42667874 323.8309284 209.85546875 317.06640625 C206.37054669 311.93467138 202.76119918 306.93223217 199 302 C194.6433958 296.28698605 190.5227759 290.45263321 186.5 284.5 C181.98915767 277.82794988 177.31936953 271.32544059 172.44702148 264.91357422 C168.36296067 259.52586134 164.45002337 254.03150725 160.57006836 248.49560547 C156.92453568 243.29751032 153.22681573 238.14009163 149.5 233 C144.78938833 226.49956572 140.13702179 219.96135817 135.51953125 213.39453125 C131.88545434 208.2343328 128.20328599 203.1107106 124.5 198 C119.78959343 191.49941517 115.13702392 184.9613612 110.51953125 178.39453125 C106.35393088 172.47959739 102.1233104 166.61335027 97.87304688 160.7590332 C95.1116211 156.9487807 92.37683782 153.1232709 89.6875 149.26171875 C89.15189453 148.49408203 88.61628906 147.72644531 88.06445312 146.93554688 C87.05352136 145.48288463 86.04671136 144.02734137 85.04492188 142.56835938 C84.58666016 141.91029297 84.12839844 141.25222656 83.65625 140.57421875 C83.26244141 140.00276123 82.86863281 139.43130371 82.46289062 138.8425293 C80.51204218 136.38541094 78.21847248 134.21847248 76 132 C76 213.84 76 295.68 76 380 C50.92 380 25.84 380 0 380 C0 254.6 0 129.2 0 0 Z " fill="#FFFFFF" transform="translate(465,79)"/>
<path d="M0 0 C217.48401163 0 217.48401163 0 256.1875 36.75 C280.61683042 62.18217649 290.38034653 95.93942124 291.25 130.5625 C290.32160062 167.17625053 278.52898702 200.82904329 251.77734375 226.56640625 C227.25169253 248.05653383 195.46404221 260.25647266 162.73828125 260.11352539 C161.83530807 260.11364593 160.9323349 260.11376646 160.0019989 260.11389065 C157.10547341 260.11314969 154.20901385 260.10555899 151.3125 260.09765625 C149.51367219 260.0961843 147.71484395 260.09516515 145.91601562 260.09460449 C139.27733718 260.08938097 132.63866793 260.0754197 126 260.0625 C103.725 260.0315625 103.725 260.0315625 81 260 C81 299.6 81 339.2 81 380 C54.27 380 27.54 380 0 380 C0 254.6 0 129.2 0 0 Z M81 64 C81 107.89 81 151.78 81 197 C92.17875 197.0825 103.3575 197.165 114.875 197.25 C120.11093018 197.30462402 120.11093018 197.30462402 125.45263672 197.36035156 C149.24714751 197.50645659 171.58486853 196.65401436 190.6875 180.34765625 C204.98535589 165.8324343 209.37238973 147.70666343 209.30273438 127.91235352 C208.96253406 110.23296232 203.56035584 93.43179499 190.75390625 80.78125 C168.66015019 61.9163023 142.08794494 63.46610001 114.875 63.75 C103.69625 63.8325 92.5175 63.915 81 64 Z " fill="#FFFFFF" transform="translate(858,79)"/>
<path d="M0 0 C29.7 0 59.4 0 90 0 C99.1816244 29.8402793 99.1816244 29.8402793 102.85546875 42.6328125 C103.27910498 44.10098583 103.70297196 45.56909259 104.12704468 47.03713989 C105.02040321 50.13106196 105.91249909 53.22534368 106.80349731 56.31994629 C108.97129325 63.84836995 111.14677827 71.37457404 113.32159996 78.90097046 C113.82147583 80.63098941 114.32127343 82.36103099 114.82099342 84.09109497 C120.03807061 102.15286027 125.29381937 120.20322983 130.5625 138.25 C130.994677 139.73056831 131.42684659 141.21113879 131.85900879 142.69171143 C133.59123827 148.62609891 135.32369123 154.56042109 137.05664062 160.49459839 C141.34590236 175.18247365 145.63015095 189.87180952 149.91386318 204.56130409 C151.4666453 209.88588294 153.01994555 215.21031043 154.57348633 220.53466797 C158.16835498 232.855755 161.76254125 245.17702374 165.3440094 257.50201416 C166.67335179 262.07669594 168.00390601 266.65102486 169.33450317 271.2253418 C170.22561376 274.29110204 171.11467216 277.35745241 172.00366211 280.42382812 C172.52837386 282.22789635 173.05318766 284.0319349 173.578125 285.8359375 C173.81243729 286.64666718 174.04674957 287.45739685 174.28816223 288.29269409 C175.41123091 292.23380541 175.41123091 292.23380541 177 296 C189.68771733 252.82056219 202.3264928 209.62722367 214.89651489 166.41337585 C215.13426762 165.59602148 215.37202034 164.77866711 215.61697769 163.93654442 C216.09563655 162.29097061 216.57428192 160.64539287 217.05291367 158.99981117 C220.50099081 147.14536129 223.95487896 135.29261985 227.4140625 123.44140625 C227.85790542 121.92066457 228.30174799 120.39992279 228.74559021 118.87918091 C230.4881477 112.90889817 232.23082232 106.93864971 233.97427368 100.96862793 C238.67241005 84.88024035 243.3561237 68.78785304 248.00490761 52.68512726 C248.7152256 50.22495465 249.42593033 47.76489411 250.13676453 45.30487061 C250.60135611 43.6969015 251.06594052 42.08893033 251.53051758 40.48095703 C251.87137721 39.30121937 251.87137721 39.30121937 252.21912289 38.09764862 C253.5593729 33.45762321 254.89649813 28.816711 256.23132992 24.17512417 C257.04890516 21.33450625 257.86908642 18.49464564 258.68995476 15.6549778 C259.07091659 14.33486288 259.45071183 13.01441069 259.82928658 11.69360924 C260.34448667 9.89653 260.86400983 8.10069178 261.38378906 6.30493164 C261.673526 5.29854141 261.96326294 4.29215118 262.26177979 3.25526428 C263 1 263 1 264 0 C266.70838086 -0.09514592 269.39118513 -0.12554932 272.09985352 -0.11352539 C272.94856018 -0.11367142 273.79726685 -0.11381744 274.67169189 -0.1139679 C277.49078891 -0.11326848 280.30982071 -0.10547478 283.12890625 -0.09765625 C285.07803817 -0.09579217 287.02717055 -0.09436822 288.9763031 -0.09336853 C294.11706832 -0.08954255 299.25780547 -0.07971159 304.39855957 -0.06866455 C309.64005148 -0.05845215 314.8815479 -0.05387128 320.12304688 -0.04882812 C330.41537694 -0.03808939 340.70768614 -0.02101201 351 0 C349.79998305 5.82641841 348.32800244 11.44782441 346.42480469 17.08203125 C346.17390076 17.83678741 345.92299683 18.59154358 345.66448975 19.36917114 C344.83795959 21.8517531 344.00501143 24.33212803 343.171875 26.8125 C342.58015172 28.58459875 341.98878995 30.35681824 341.39776611 32.12915039 C340.15300587 35.85883193 338.90532032 39.58751675 337.65527344 43.31542969 C336.09853503 47.95802343 334.54665368 52.60221896 332.9967804 57.24710846 C326.40082378 77.01271297 319.73371783 96.75272925 312.98279572 116.46592712 C307.24991894 133.21112456 301.6388168 149.99539072 296.06277466 166.79336548 C293.34772486 174.97201105 290.62589187 183.14839976 287.90234375 191.32421875 C287.63723936 192.12008078 287.37213497 192.9159428 287.09899712 193.73592186 C283.14125039 205.61366634 279.13898408 217.47491624 275.0625 229.3125 C268.52714124 248.29074363 262.20620639 267.34007445 255.8698616 286.38542938 C240.50378534 332.57173232 240.50378534 332.57173232 233.625 352.6875 C233.35204102 353.48663818 233.07908203 354.28577637 232.79785156 355.10913086 C229.94972786 363.43962865 227.00930812 371.72440267 224 380 C191.99 380 159.98 380 127 380 C121.70729089 364.29201716 116.41534094 348.58378034 111.125 332.875 C110.73451981 331.71558395 110.34403961 330.55616791 109.94172668 329.36161804 C100.84028954 302.3368629 91.74133931 275.31162132 82.75 248.25 C77.8043636 233.36532609 72.79836361 218.5043901 67.69958496 203.67150879 C60.9985755 184.15947989 54.51225523 164.57559183 48 145 C37.9458826 114.74682904 37.9458826 114.74682904 27.6875 84.5625 C21.81747373 67.48941414 16.0756087 50.37398779 10.35611343 33.25001144 C9.62863195 31.0733669 8.89998449 28.89711602 8.17098999 26.72097778 C7.02558705 23.30131474 5.8832453 19.88064449 4.74331856 16.45915222 C4.1122848 14.5673019 3.47840036 12.67640319 2.84446716 10.78552246 C2.46862991 9.65497437 2.09279266 8.52442627 1.70556641 7.35961914 C1.37473053 6.36853653 1.04389465 5.37745392 0.70303345 4.3563385 C0 2 0 2 0 0 Z " fill="#FFFFFF" transform="translate(66,79)"/>
<path d="M0 0 C99.66 0 199.32 0 302 0 C302 21.78 302 43.56 302 66 C265.37 66 228.74 66 191 66 C191 169.62 191 273.24 191 380 C164.6 380 138.2 380 111 380 C111 276.38 111 172.76 111 66 C74.37 66 37.74 66 0 66 C0 44.22 0 22.44 0 0 Z " fill="#FFFFFF" transform="translate(1185,79)"/>
<path d="M0 0 C11.91441989 8.31437935 18.81168121 20.83267193 21.71484375 34.89453125 C22.19230437 38.59673278 22.43356594 42.29423133 22.65234375 46.01953125 C24.69099025 73.32283252 34.62548136 98.12369862 55.640625 116.4453125 C75.93775516 133.11165168 100.52986162 140.65221508 126.71484375 138.89453125 C150.13899337 136.46251572 174.4055305 125.19690125 189.71484375 106.89453125 C203.75288007 89.21530769 211.34584729 69.69795726 213.1015625 47.0859375 C214.52371272 29.26762974 219.29817383 15.31439385 232.56640625 2.70703125 C244.98334593 -7.76835059 259.46691747 -10.46819429 275.29492188 -9.37597656 C285.66312199 -8.21698083 294.78735367 -3.82415715 302.71484375 2.89453125 C303.77445313 3.78785156 303.77445313 3.78785156 304.85546875 4.69921875 C316.31411312 15.23942216 321.05277463 28.74644476 321.7734375 43.95703125 C321.54253886 59.47342009 316.12845766 72.30318514 305.4140625 83.41796875 C294.02787114 93.8649229 281.08509993 97.10887652 266.04681396 98.61880493 C237.36501819 101.55626949 212.88284026 111.48705808 193.71484375 133.89453125 C181.45997103 149.18394388 175.12538096 166.76878054 173.015625 186.125 C172.8304834 187.82281616 172.8304834 187.82281616 172.64160156 189.55493164 C172.40515996 191.80382087 172.18357071 194.0543398 171.97949219 196.30639648 C170.46209328 211.4265202 165.11440874 224.0123337 154.15234375 234.70703125 C144.90367342 242.09119918 133.51724996 247.09225288 121.71484375 247.89453125 C120.43609375 247.99765625 119.15734375 248.10078125 117.83984375 248.20703125 C102.04352442 247.61956483 87.86612191 241.40336123 77.125 229.85546875 C68.17865256 218.86465617 64.59345734 207.83994669 63.77734375 193.89453125 C61.54743905 164.21743939 51.23083322 139.67748384 28.22265625 119.8359375 C10.75854813 106.31621517 -8.95112843 100.36838631 -30.7109375 98.5078125 C-44.73669936 97.25985802 -56.14741566 93.95875631 -67.28515625 84.89453125 C-67.9090625 84.39566406 -68.53296875 83.89679688 -69.17578125 83.3828125 C-79.43899889 74.20601655 -84.51135941 60.81018506 -85.55859375 47.390625 C-85.99624154 32.05611964 -81.39817552 19.03766733 -71.5859375 7.28515625 C-52.27584086 -12.77898491 -23.05498232 -14.39042917 0 0 Z " fill="#FFFFFF" transform="translate(1654.28515625,220.10546875)"/>
<path d="M0 0 C5.03597981 4.02503962 7.99654158 8.70401815 10.7265625 14.4921875 C10.9946875 13.99589844 11.2628125 13.49960937 11.5390625 12.98828125 C16.98294218 3.5510293 24.23020683 -1.70081251 34.48828125 -5.08984375 C45.72777964 -7.18866806 57.0950038 -6.01736992 66.9609375 -0.1875 C74.77699238 5.18971069 79.61256333 12.26055085 81.7265625 21.4921875 C82.57796317 26.56584699 82.8656162 31.49770884 82.84008789 36.63061523 C82.84023392 37.41192307 82.84037994 38.1932309 82.8405304 38.99821472 C82.83983877 41.5574327 82.83208177 44.11657612 82.82421875 46.67578125 C82.8223519 48.45939596 82.82092926 50.24301118 82.81993103 52.02662659 C82.81612685 56.70369908 82.80631463 61.38074015 82.79522705 66.05780029 C82.78496766 70.83735733 82.78042373 75.61691948 82.77539062 80.39648438 C82.76469035 89.76173473 82.74711069 99.12695357 82.7265625 108.4921875 C72.4965625 108.4921875 62.2665625 108.4921875 51.7265625 108.4921875 C51.70468872 105.19250977 51.70468872 105.19250977 51.68237305 101.82617188 C51.63191496 94.5378014 51.56530035 87.24964205 51.49084759 79.96147919 C51.44622228 75.54497624 51.40694913 71.12856386 51.38012695 66.71191406 C51.35401542 62.44531148 51.3135582 58.17905892 51.26337624 53.91267395 C51.2467604 52.28933585 51.23521334 50.66593729 51.22894859 49.04252625 C51.6128975 35.55257738 51.6128975 35.55257738 45.4140625 24.1171875 C39.11488896 20.3083849 33.83290395 19.9065706 26.7265625 21.4921875 C21.86215727 23.92439012 19.41895481 26.80543052 16.7265625 31.4921875 C15.54738293 35.02972622 15.56562503 37.89106918 15.52124023 41.62573242 C15.51134064 42.34793472 15.50144104 43.07013702 15.49124146 43.81422424 C15.45966491 46.20033495 15.43488428 48.58646556 15.41015625 50.97265625 C15.3895834 52.62747209 15.36858684 54.28228271 15.34718323 55.93708801 C15.29199675 60.29193903 15.24257237 64.64683721 15.19433594 69.00177002 C15.14409592 73.44588415 15.08842291 77.88992982 15.03320312 82.33398438 C14.9256634 91.0533291 14.82471121 99.772732 14.7265625 108.4921875 C4.8265625 108.4921875 -5.0734375 108.4921875 -15.2734375 108.4921875 C-15.28802002 106.22134277 -15.30260254 103.95049805 -15.31762695 101.61083984 C-15.36801618 94.09894087 -15.43461892 86.58724825 -15.50915241 79.07555199 C-15.55383578 74.52222852 -15.59309636 69.96899411 -15.61987305 65.41552734 C-15.64592635 61.01926081 -15.68634303 56.62333733 -15.73662376 52.22728348 C-15.75327879 50.5520518 -15.76480156 48.87676079 -15.77105141 47.20145798 C-15.78070753 44.8505756 -15.80878359 42.50056818 -15.84106445 40.14990234 C-15.83962936 39.46081787 -15.83819427 38.7717334 -15.8367157 38.06176758 C-15.94536418 32.44896061 -17.59188662 28.57962997 -21.0859375 24.2421875 C-25.671745 20.5735415 -30.53558735 19.90867732 -36.2734375 20.4921875 C-41.5797374 21.93520882 -45.24755806 23.80469797 -48.2734375 28.4921875 C-51.08969498 33.49886747 -51.40874369 37.83435063 -51.47875977 43.55566406 C-51.49360916 44.60992584 -51.49360916 44.60992584 -51.50875854 45.68548584 C-51.54026534 48.0012275 -51.56508799 50.31698965 -51.58984375 52.6328125 C-51.61042263 54.24135868 -51.63141935 55.84989956 -51.65281677 57.45843506 C-51.70794098 61.6866832 -51.75739271 65.91497936 -51.80566406 70.14331055 C-51.85594966 74.46016704 -51.91159885 78.77695402 -51.96679688 83.09375 C-52.07426038 91.55983859 -52.17523563 100.02598641 -52.2734375 108.4921875 C-62.5034375 108.4921875 -72.7334375 108.4921875 -83.2734375 108.4921875 C-83.2734375 71.2021875 -83.2734375 33.9121875 -83.2734375 -4.5078125 C-73.3734375 -4.5078125 -63.4734375 -4.5078125 -53.2734375 -4.5078125 C-52.7784375 3.4121875 -52.7784375 3.4121875 -52.2734375 11.4921875 C-51.2628125 10.1103125 -50.2521875 8.7284375 -49.2109375 7.3046875 C-37.54505235 -7.58743442 -15.8816026 -10.53315911 0 0 Z " fill="#FFFFFF" transform="translate(1190.2734375,574.5078125)"/>
<path d="M0 0 C5.09606043 3.84114191 7.47658161 8.98431155 9.94921875 14.75 C10.36171875 14.18152344 10.77421875 13.61304688 11.19921875 13.02734375 C18.32851582 3.49509164 24.90340578 -2.962649 36.94921875 -5.25 C49.06138813 -6.58508476 59.59001202 -5.26037636 69.76171875 1.875 C76.41664309 7.43269667 79.9315233 14.42134661 81.94921875 22.75 C82.20881028 25.65062045 82.20313598 28.52860152 82.17626953 31.43920898 C82.17656158 32.27903824 82.17685364 33.11886749 82.17715454 33.98414612 C82.17576999 36.73823667 82.16025027 39.49205092 82.14453125 42.24609375 C82.14079801 44.16422884 82.1379525 46.08236585 82.13595581 48.00050354 C82.12834388 53.03271816 82.10871644 58.06481612 82.08654785 63.09698486 C82.06603675 68.23846865 82.05694286 73.37997141 82.046875 78.52148438 C82.02546815 88.59771558 81.99030598 98.67382981 81.94921875 108.75 C72.04921875 108.75 62.14921875 108.75 51.94921875 108.75 C51.92734497 105.5490564 51.92734497 105.5490564 51.9050293 102.28344727 C51.85453099 95.2066239 51.78790964 88.13001705 51.71350384 81.05340672 C51.6689123 76.76584847 51.62963198 72.4783828 51.6027832 68.19067383 C51.57663762 64.04725526 51.53615711 59.90419507 51.48603249 55.76099968 C51.46943945 54.1859377 51.45787833 52.61081384 51.45160484 51.03567696 C51.57952118 37.10635952 51.57952118 37.10635952 45.63671875 24.8125 C40.25721768 20.68404569 35.81756149 20.45279458 29.2890625 21.2578125 C26.40619112 21.86422618 24.33001398 23.03880343 21.94921875 24.75 C21.28921875 24.75 20.62921875 24.75 19.94921875 24.75 C17.0442723 30.35239672 15.65044475 34.85252048 15.63037109 41.20239258 C15.62032547 41.9346405 15.61027985 42.66688843 15.59992981 43.42132568 C15.56916804 45.82905327 15.55208242 48.23667002 15.53515625 50.64453125 C15.51643894 52.31891326 15.49686511 53.99328589 15.47647095 55.66764832 C15.42520314 60.06520046 15.38554884 64.46278316 15.34832764 68.86047363 C15.30825439 73.35172045 15.25717721 77.84284072 15.20703125 82.33398438 C15.11033526 91.13924274 15.0269278 99.94455358 14.94921875 108.75 C5.04921875 108.75 -4.85078125 108.75 -15.05078125 108.75 C-15.06536377 106.55021484 -15.07994629 104.35042969 -15.0949707 102.08398438 C-15.14542879 94.7956139 -15.2120434 87.50745455 -15.28649616 80.21929169 C-15.33112147 75.80278874 -15.37039462 71.38637636 -15.3972168 66.96972656 C-15.42332833 62.70312398 -15.46378555 58.43687142 -15.51396751 54.17048645 C-15.53058335 52.54714835 -15.54213041 50.92374979 -15.54839516 49.30033875 C-15.16444625 35.81038988 -15.16444625 35.81038988 -21.36328125 24.375 C-27.63190832 20.58466735 -32.97907444 20.05772151 -40.05078125 21.75 C-45.36651113 23.9993506 -48.03681291 27.60323083 -50.23010254 32.81173706 C-52.02049927 39.221866 -51.65665635 45.98962942 -51.66015625 52.59765625 C-51.67515812 54.22148776 -51.69188944 55.84530413 -51.71026611 57.46910095 C-51.75372715 61.71541086 -51.77389117 65.96151502 -51.78900146 70.20800781 C-51.80864972 74.55220601 -51.85061073 78.89618448 -51.890625 83.24023438 C-51.96569681 91.74345866 -52.01406148 100.24652353 -52.05078125 108.75 C-62.28078125 108.75 -72.51078125 108.75 -83.05078125 108.75 C-83.05078125 71.46 -83.05078125 34.17 -83.05078125 -4.25 C-73.15078125 -4.25 -63.25078125 -4.25 -53.05078125 -4.25 C-52.55578125 3.67 -52.55578125 3.67 -52.05078125 11.75 C-50.81328125 9.955625 -50.81328125 9.955625 -49.55078125 8.125 C-37.83133078 -7.38200121 -16.40054375 -9.99652191 0 0 Z " fill="#FFFFFF" transform="translate(1378.05078125,574.25)"/>
<path d="M0 0 C9.82474935 7.60350167 17.38530312 20.66814837 19 33 C20.31221982 49.48527734 17.17672206 64.68014087 6.375 77.75 C-3.59780035 88.19679276 -16.38333052 94.14316764 -30.75390625 95.203125 C-46.52116123 95.46627807 -60.09763495 90.80785898 -71.8125 80.0625 C-82.77774928 68.42394594 -87.56156927 54.12241711 -87.24609375 38.29296875 C-86.16055804 23.76746708 -79.77486432 10.7753093 -69 1 C-47.81727888 -15.13479196 -21.75119878 -15.17889411 0 0 Z " fill="#FFFFFF" transform="translate(1807,72)"/>
<path d="M0 0 C10.89 0 21.78 0 33 0 C36.44001427 10.83351748 39.64962424 21.6926307 42.64453125 32.65625 C43.06312501 34.18044647 43.48196859 35.70457434 43.90104675 37.2286377 C44.98683695 41.17988746 46.06930345 45.13203979 47.15100098 49.08441162 C48.26201185 53.14147724 49.37627318 57.19764992 50.49023438 61.25390625 C52.66327917 69.16841662 54.83280192 77.08388666 57 85 C63.67098849 61.82283906 70.25593241 38.62601356 76.60864258 15.359375 C76.83029083 14.54826767 77.05193909 13.73716034 77.28030396 12.901474 C77.69311397 11.38980303 78.10509468 9.87790524 78.51608276 8.36573792 C79.28398226 5.55114831 80.07716312 2.76851065 81 0 C91.56 0 102.12 0 113 0 C111.87498383 7.87511316 111.87498383 7.87511316 110.85281372 10.89807129 C110.50858116 11.9307312 110.50858116 11.9307312 110.15739441 12.98425293 C109.90709976 13.71454712 109.65680511 14.44484131 109.39892578 15.19726562 C109.13359543 15.9872998 108.86826508 16.77733398 108.59489441 17.59130859 C107.7176173 20.19832756 106.83160769 22.80228441 105.9453125 25.40625 C105.32244093 27.24996485 104.70004393 29.09384009 104.07809448 30.93786621 C102.76869266 34.81597444 101.45527045 38.69268861 100.13867188 42.56835938 C98.48472311 47.43730293 96.83794851 52.30863062 95.19380569 57.18089294 C91.44433583 68.29072902 87.66553596 79.39028253 83.86244202 90.48187256 C83.03199197 92.90659098 82.20453337 95.33231041 81.37780762 97.75830078 C80.15285638 101.34905821 78.91586068 104.9354302 77.66854477 108.51847839 C77.02414078 110.37661292 76.39010711 112.23833427 75.75662231 114.10021973 C70.86503846 128.03176143 64.70729003 141.50293512 51.25 148.875 C38.84996614 154.34615998 25.40402366 155.17704306 12 154 C11 153 11 153 10.88647461 150.77514648 C10.89171143 149.81680908 10.89694824 148.85847168 10.90234375 147.87109375 C10.90556641 146.83662109 10.90878906 145.80214844 10.91210938 144.73632812 C10.92048828 143.64771484 10.92886719 142.55910156 10.9375 141.4375 C10.94201172 140.34501953 10.94652344 139.25253906 10.95117188 138.12695312 C10.96300174 135.41791505 10.97948457 132.70898401 11 130 C12.2684375 129.94392578 12.2684375 129.94392578 13.5625 129.88671875 C24.85959573 129.37268776 24.85959573 129.37268776 34.375 123.8125 C36.92238527 119.40356395 38.45795537 115.52088658 37.53787231 110.45614624 C36.65090559 107.49120757 35.63773197 104.60268881 34.56640625 101.69921875 C34.18218506 100.6053334 33.79796387 99.51144806 33.40209961 98.38441467 C32.1420075 94.81141105 30.85248471 91.24980783 29.5625 87.6875 C28.68600189 85.21915776 27.8115886 82.75007427 26.93920898 80.28027344 C25.16625657 75.26890602 23.3825383 70.26164861 21.58984375 65.25732422 C19.20147996 58.58085227 16.85542606 51.89046255 14.53125 45.19140625 C14.18980453 44.20746384 13.84835907 43.22352142 13.49656677 42.20976257 C12.83541194 40.30369188 12.17443133 38.39756074 11.51364136 36.49136353 C10.01590286 32.17460697 8.51122251 27.86029518 7.00390625 23.546875 C6.60547264 22.40337334 6.60547264 22.40337334 6.19898987 21.23677063 C4.42881798 16.17211511 2.58276217 11.14079283 0.64428711 6.13769531 C0 4 0 4 0 0 Z " fill="#FFFFFF" transform="translate(1861,570)"/>
<path d="M0 0 C0.79011475 0.00563965 1.58022949 0.0112793 2.39428711 0.01708984 C13.1470965 0.24034686 22.24499841 3.22296605 29.87890625 11.12890625 C36.8548722 19.7833001 39.29097 29.48488878 39.23852539 40.4074707 C39.23867142 41.20799362 39.23881744 42.00851654 39.2389679 42.83329773 C39.23827355 45.4683202 39.23050356 48.10327119 39.22265625 50.73828125 C39.22079037 52.56959494 39.21936727 54.40090914 39.21836853 56.23222351 C39.21455672 61.04413235 39.20473785 65.85601084 39.19366455 70.66790771 C39.18342169 75.58133534 39.17886475 80.49476789 39.17382812 85.40820312 C39.16311437 95.04298421 39.14552839 104.67773483 39.125 114.3125 C29.225 114.3125 19.325 114.3125 9.125 114.3125 C9.07601563 109.59195313 9.02703125 104.87140625 8.9765625 100.0078125 C8.94113671 96.99997982 8.90515429 93.99217407 8.8671875 90.984375 C8.80710549 86.22041884 8.74897755 81.45649995 8.703125 76.69238281 C8.66598777 72.84728021 8.61955488 69.00238769 8.56693649 65.15746689 C8.54854234 63.69765825 8.53338044 62.23780484 8.52165604 60.7779274 C8.67144622 45.82961513 8.67144622 45.82961513 3.125 32.3125 C3.125 31.6525 3.125 30.9925 3.125 30.3125 C1.46515202 29.62903318 -0.20336805 28.96661685 -1.875 28.3125 C-2.82375 27.94125 -3.7725 27.57 -4.75 27.1875 C-11.45697367 25.30954737 -17.72012216 26.15097805 -23.875 29.3125 C-28.70084474 33.26948332 -31.40643201 38.2752398 -32.875 44.3125 C-33.34785721 49.67429642 -33.36474554 55.02824219 -33.38671875 60.40625 C-33.40358578 61.96424761 -33.42173872 63.52223179 -33.44111633 65.0802002 C-33.48840308 69.15714314 -33.51834971 73.23403156 -33.54455566 77.31115723 C-33.57973992 82.21565151 -33.63669135 87.11993655 -33.68994904 92.02426147 C-33.76821269 99.45364689 -33.81900666 106.88276314 -33.875 114.3125 C-44.105 114.3125 -54.335 114.3125 -64.875 114.3125 C-64.875 77.0225 -64.875 39.7325 -64.875 1.3125 C-54.975 1.3125 -45.075 1.3125 -34.875 1.3125 C-34.38 9.2325 -34.38 9.2325 -33.875 17.3125 C-32.555 15.765625 -31.235 14.21875 -29.875 12.625 C-21.300541 3.13807901 -12.67040276 -0.09501105 0 0 Z " fill="#FFFFFF" transform="translate(1673.875,568.6875)"/>
<path d="M0 0 C10.23 0 20.46 0 31 0 C31.05607422 7.63962891 31.05607422 7.63962891 31.11328125 15.43359375 C31.14358267 18.67386097 31.17474465 21.91407471 31.20898438 25.15429688 C31.26316493 30.28927813 31.31428012 35.42415359 31.34643555 40.55932617 C31.37258113 44.70274474 31.41306164 48.84580493 31.46318626 52.98900032 C31.4797793 54.5640623 31.49134042 56.13918616 31.49761391 57.71432304 C31.24157655 71.19921745 31.24157655 71.19921745 36.71875 83.15625 C37.60046875 83.82140625 37.60046875 83.82140625 38.5 84.5 C39.0878125 84.9640625 39.675625 85.428125 40.28125 85.90625 C45.50026995 89.22744451 52.07612796 88.48372446 58 88 C63.84636895 86.54073144 66.94284834 83.46574891 69.9921875 78.390625 C73.55696272 69.93464658 73.3432943 61.35759907 73.4140625 52.34375 C73.43279858 50.83059665 73.45237377 49.31745347 73.4727478 47.80432129 C73.52381759 43.84576451 73.56357691 39.88717395 73.60089111 35.9284668 C73.6481727 31.16583464 73.70966153 26.40336679 73.76873779 21.64086914 C73.85664302 14.42731334 73.92662639 7.21378412 74 0 C83.9 0 93.8 0 104 0 C104 37.29 104 74.58 104 113 C94.43 113 84.86 113 75 113 C74.67 107.72 74.34 102.44 74 97 C73.13375 98.216875 72.2675 99.43375 71.375 100.6875 C65.3892906 108.59868235 57.85102478 113.48221248 48 115 C33.88111062 115.90639784 21.9528457 113.64395013 10.99609375 104.2890625 C1.71396798 94.78641106 -0.17978572 81.76296095 -0.11352539 69.0234375 C-0.11367142 68.27124435 -0.11381744 67.51905121 -0.1139679 66.74406433 C-0.11327795 64.28767897 -0.10552909 61.83137192 -0.09765625 59.375 C-0.0957888 57.66007529 -0.09436644 55.94515004 -0.09336853 54.23022461 C-0.08956908 49.73893739 -0.07976103 45.24768302 -0.06866455 40.75640869 C-0.05839486 36.16443323 -0.05385905 31.57245241 -0.04882812 26.98046875 C-0.03813622 17.98696248 -0.02056052 8.99348913 0 0 Z " fill="#FFFFFF" transform="translate(1482,570)"/>
<path d="M0 0 C10.23 0 20.46 0 31 0 C31 7.92 31 15.84 31 24 C37.93 24 44.86 24 52 24 C52 31.92 52 39.84 52 48 C45.07 48 38.14 48 31 48 C31.06298858 55.47615281 31.13845773 62.95193086 31.23571491 70.42772198 C31.28038373 73.89930066 31.31964707 77.37076294 31.34643555 80.8425293 C31.37749455 84.8367256 31.43228188 88.83029368 31.48828125 92.82421875 C31.49467117 94.06709152 31.5010611 95.30996429 31.50764465 96.59049988 C31.52743881 97.75132584 31.54723297 98.91215179 31.56762695 100.1081543 C31.58428154 101.63704536 31.58428154 101.63704536 31.60127258 103.19682312 C32.06349669 106.44640136 33.10027122 108.34675089 35 111 C38.31105909 113.38806474 41.75505933 113.38530356 45.75 113.625 C46.92046875 113.69976563 48.0909375 113.77453125 49.296875 113.8515625 C50.63492187 113.92503906 50.63492187 113.92503906 52 114 C52.02887512 117.64581687 52.04675585 121.29160463 52.0625 124.9375 C52.07087891 125.97841797 52.07925781 127.01933594 52.08789062 128.09179688 C52.09111328 129.08115234 52.09433594 130.07050781 52.09765625 131.08984375 C52.10289307 132.00628662 52.10812988 132.92272949 52.11352539 133.86694336 C52 136 52 136 51 137 C37.63250298 139.31360525 22.33705253 139.26195324 10.1953125 132.60546875 C4.38090959 128.35329865 1.9000321 122.75349863 0.41790771 115.84237671 C-0.45567447 109.90075474 -0.24120253 103.89408214 -0.1953125 97.90234375 C-0.19157506 96.45789284 -0.18873155 95.01343936 -0.18673706 93.56898499 C-0.17915806 89.79607958 -0.15956 86.023332 -0.1373291 82.25048828 C-0.11674601 78.3890191 -0.10770889 74.52752403 -0.09765625 70.66601562 C-0.07630771 63.11059733 -0.04117352 55.55534103 0 48 C-4.95 48 -9.9 48 -15 48 C-15 40.08 -15 32.16 -15 24 C-10.05 24 -5.1 24 0 24 C0 16.08 0 8.16 0 0 Z " fill="#FFFFFF" transform="translate(1798,546)"/>
<path d="M0 0 C4.62 0 9.24 0 14 0 C14.33 20.46 14.66 40.92 15 62 C17.31 59.03 19.62 56.06 22 53 C31.36261691 44.55360248 41.60774257 42.02908981 54 42 C66.65713335 42.73886819 77.10562398 47.84407346 85.7421875 57.10546875 C98.42764159 73.36830868 99.72691608 93.29911013 97.7890625 113.16210938 C95.85507215 127.06632786 88.47172336 138.96995588 77.7734375 147.84765625 C66.95586303 155.62637146 54.91092969 156.19733906 42 155 C31.60317503 153.09315874 23.79468139 147.93501162 17.4375 139.5625 C16.633125 138.386875 15.82875 137.21125 15 136 C14.67 141.94 14.34 147.88 14 154 C9.38 154 4.76 154 0 154 C0 103.18 0 52.36 0 0 Z M25.98828125 64.78515625 C16.27175156 75.04968978 13.51575722 88.35622722 13.81640625 102.09765625 C14.57142543 114.03338491 18.44552557 125.35839884 26.8125 134.08984375 C34.92071344 141.17005155 42.72014612 142.48827303 53.234375 142.2734375 C61.93280834 141.64180852 68.1414789 137.26964539 74 131 C82.62950915 120.16721192 84.87362942 106.48566142 84 93 C82.03484903 78.99636516 77.6808875 68.39267773 66.28125 59.6875 C53.10509511 51.23487233 37.08493873 54.93821942 25.98828125 64.78515625 Z " fill="#FFFFFF" transform="translate(698,529)"/>
<path d="M0 0 C9.20799564 7.86892437 16.06417633 19.12696401 18.5 31.0625 C18.5 32.7125 18.5 34.3625 18.5 36.0625 C13.55 36.0625 8.6 36.0625 3.5 36.0625 C2.79875 34.0825 2.0975 32.1025 1.375 30.0625 C-2.97462622 18.82901155 -9.94928516 10.49856072 -20.9375 5.25 C-33.82100826 -0.1373267 -46.18048201 -0.23673541 -59.5 4.0625 C-72.16385214 9.37635168 -80.20147721 18.30598447 -85.6875 30.7578125 C-93.41826628 50.71001076 -93.32746805 75.17464093 -84.921875 94.86328125 C-79.62960107 106.50932106 -72.56101598 115.13438643 -60.6796875 120.28515625 C-46.83778798 125.32678806 -32.41846764 125.24403117 -18.84375 119.25 C-6.26719967 112.87788117 -1.51149981 105.0334407 3.5 92.0625 C8.45 92.0625 13.4 92.0625 18.5 92.0625 C17.53354117 105.10969419 11.27111155 115.79949171 1.875 124.8125 C-10.46313738 134.87654931 -25.35199106 138.61244668 -41 138.4375 C-42.03769531 138.44910156 -43.07539063 138.46070313 -44.14453125 138.47265625 C-59.98352181 138.41348194 -73.79496015 133.37372449 -85.2578125 122.33203125 C-85.99773437 121.58308594 -86.73765625 120.83414063 -87.5 120.0625 C-88.13679688 119.44761719 -88.77359375 118.83273437 -89.4296875 118.19921875 C-103.64345341 103.44848835 -107.60034375 80.82588748 -107.53515625 61.06640625 C-107.07362621 40.27347465 -102.04486711 19.68114925 -87.5 4.0625 C-86.68208984 3.1653125 -86.68208984 3.1653125 -85.84765625 2.25 C-62.93173369 -20.2146243 -24.40946728 -18.53514107 0 0 Z " fill="#FFFFFF" transform="translate(549.5,546.9375)"/>
<path d="M0 0 C10.56 0 21.12 0 32 0 C32 48.51 32 97.02 32 147 C21.44 147 10.88 147 0 147 C0 98.49 0 49.98 0 0 Z " fill="#FFFFFF" transform="translate(1051,536)"/>
<path d="M0 0 C9.48978514 8.78620252 13.68759622 19.46433741 16 32 C16 37.94 16 43.88 16 50 C-11.06 50 -38.12 50 -66 50 C-62.5925461 68.55936239 -62.5925461 68.55936239 -51.1953125 82.6015625 C-41.71189297 88.64260199 -31.66494391 90.10976145 -20.7421875 87.7890625 C-13.22330199 85.62550855 -7.34642154 82.58548718 -3 76 C-1.85550419 73.6923987 -0.9171806 71.41363315 0 69 C4.95 69 9.9 69 15 69 C13.37333432 78.46423668 9.33270665 86.78119754 1.625 92.87890625 C-13.16549471 102.36507176 -28.55210949 104.43760133 -45.8359375 101.3046875 C-57.30710787 97.79551199 -67.67994693 89.94616613 -73.8046875 79.5625 C-77.76696238 71.06821138 -80.746426 61.39914309 -81 52 C-81.05027344 51.13890625 -81.10054687 50.2778125 -81.15234375 49.390625 C-81.73121516 32.25603133 -77.62944825 14.89809499 -65.875 1.9375 C-47.62071022 -14.46308393 -19.08389294 -15.68731016 0 0 Z M-54 11 C-54.62777344 11.5878125 -55.25554688 12.175625 -55.90234375 12.78125 C-62.99597696 20.09983987 -64.75866864 28.06934911 -66 38 C-43.89 38 -21.78 38 1 38 C1 27.25605786 -1.54854065 18.90201271 -9 11 C-15.22817487 4.85561223 -22.81236559 2.34805444 -31.5 1.859375 C-40.28324705 2.35343265 -47.62474699 4.94144423 -54 11 Z " fill="#FFFFFF" transform="translate(893,582)"/>
<path d="M0 0 C6.09047231 5.10558181 10.12933144 10.45727494 11.6640625 18.38671875 C12.47919704 28.62595256 11.51368824 36.35617164 4.7890625 44.32421875 C1.93087568 47.50184998 -0.36031591 48.90088452 -4.3359375 50.38671875 C-4.31499023 51.62760254 -4.29404297 52.86848633 -4.27246094 54.14697266 C-4.1998838 58.76501864 -4.15407329 63.38301452 -4.11621094 68.00146484 C-4.09613581 69.99764493 -4.06886961 71.9937665 -4.03417969 73.98974609 C-3.98548093 76.86440495 -3.96292764 79.73828415 -3.9453125 82.61328125 C-3.92466736 83.50101227 -3.90402222 84.38874329 -3.88275146 85.30337524 C-3.88075653 90.8526926 -4.64562511 93.97434197 -8.3359375 98.38671875 C-11.39795719 101.35481145 -13.54945663 101.79686977 -17.7734375 101.76171875 C-22.08742351 101.62959934 -25.02822196 101.38433596 -28.3359375 98.38671875 C-32.0217797 93.7587153 -31.70166853 89.52684555 -31.6015625 83.88671875 C-31.60433299 82.01171673 -31.60827496 80.13671614 -31.61328125 78.26171875 C-31.60492002 75.31856489 -31.58579714 72.37649072 -31.54541016 69.43359375 C-31.51254958 66.58377223 -31.52290984 63.73662616 -31.5390625 60.88671875 C-31.50356293 59.5709082 -31.50356293 59.5709082 -31.46734619 58.22851562 C-31.46048764 53.55942129 -31.46048764 53.55942129 -33.87992859 49.7677002 C-35.72484282 48.41762359 -35.72484282 48.41762359 -37.64463806 47.3692627 C-40.02398868 45.98700211 -41.20583975 44.19487515 -42.6484375 41.88671875 C-43.11894531 41.15453125 -43.58945313 40.42234375 -44.07421875 39.66796875 C-48.12432981 32.34516733 -48.39741046 24.58170221 -47.3359375 16.38671875 C-46.15279426 12.65345402 -44.53555175 9.61281965 -42.3359375 6.38671875 C-41.7378125 5.45859375 -41.1396875 4.53046875 -40.5234375 3.57421875 C-29.46693682 -7.48228193 -12.92011784 -8.92309142 0 0 Z " fill="#FFFFFF" transform="translate(1790.3359375,215.61328125)"/>
<path d="M0 0 C5.28 0 10.56 0 16 0 C17.68867249 4.77042116 19.3762874 9.54120938 21.0625 14.3125 C21.32444153 15.05352966 21.58638306 15.79455933 21.85626221 16.55804443 C25.23524538 26.12075771 28.59412513 35.69022067 31.92578125 45.26953125 C32.41900627 46.68698387 32.41900627 46.68698387 32.92219543 48.1330719 C34.53283536 52.7627063 36.14124439 57.39309801 37.74633789 62.0246582 C41.35188163 72.40733399 45.08222819 82.73093468 49 93 C49.22391418 92.34887238 49.44782837 91.69774475 49.67852783 91.02688599 C68.6793938 35.78069583 68.6793938 35.78069583 75.4317627 16.58612061 C75.93443772 15.15697598 76.43615136 13.72749282 76.93688965 12.29766846 C77.61504483 10.36274283 78.29760424 8.4293624 78.98046875 6.49609375 C79.35067139 5.44607178 79.72087402 4.3960498 80.10229492 3.31420898 C81 1 81 1 82 0 C84.53049402 -0.07313567 87.03304837 -0.09247527 89.5625 -0.0625 C90.62887695 -0.05573242 90.62887695 -0.05573242 91.71679688 -0.04882812 C93.47790013 -0.03700864 95.23896036 -0.01907263 97 0 C96.24315415 4.88599023 94.51865608 9.34294489 92.80859375 13.95703125 C92.47560272 14.86406799 92.14261169 15.77110474 91.79953003 16.70562744 C90.68293707 19.74277302 89.56051575 22.7777239 88.4375 25.8125 C87.64537111 27.95953363 86.85329887 30.10658816 86.0612793 32.25366211 C83.6264703 38.84625007 81.18210489 45.43527428 78.73445129 52.02310181 C77.98139851 54.05006901 77.22866406 56.07715424 76.47595215 58.10424805 C73.29042996 66.68126756 70.09670365 75.25519066 66.89456177 83.82601929 C65.84795591 86.62747592 64.80317423 89.42960184 63.75997925 92.23233032 C45.74641558 140.60836158 45.74641558 140.60836158 33.2109375 147.125 C28.75839481 148.88713704 24.57130255 149.13682311 19.8125 149.125 C18.76707031 149.12757813 17.72164062 149.13015625 16.64453125 149.1328125 C14 149 14 149 12 148 C12 144.04 12 140.08 12 136 C13.30324219 135.96132813 13.30324219 135.96132813 14.6328125 135.921875 C23.64587182 135.67350873 23.64587182 135.67350873 31 131 C35.17705616 125.25137815 40.59817889 117.33362723 39.76260376 109.88327026 C38.524051 104.73444305 36.9916519 99.82202801 35.0859375 94.8828125 C34.79921173 94.12437042 34.51248596 93.36592834 34.21707153 92.58450317 C33.59815377 90.94940428 32.97648028 89.31534627 32.35229492 87.68225098 C31.35492841 85.07247942 30.36495323 82.46001055 29.37695312 79.84667969 C28.33290862 77.08538573 27.28841435 74.32427085 26.24176025 71.56396484 C22.63586484 62.05418104 19.07276254 52.5286357 15.52374268 42.99749756 C14.53263607 40.33758796 13.53867462 37.67875879 12.54443359 35.02001953 C8.20870636 23.39913706 4.05605744 11.72131855 0 0 Z " fill="#FFFFFF" transform="translate(583,573)"/>
<path d="M0 0 C10.23 0 20.46 0 31 0 C31 37.29 31 74.58 31 113 C20.77 113 10.54 113 0 113 C0 75.71 0 38.42 0 0 Z " fill="#FFFFFF" transform="translate(1736,570)"/>
<path d="M0 0 C1 1 1 1 1.09765625 4.16015625 C1.08605469 5.44792969 1.07445312 6.73570312 1.0625 8.0625 C1.05347656 9.35285156 1.04445313 10.64320313 1.03515625 11.97265625 C1.02355469 12.97167969 1.01195312 13.97070312 1 15 C0.17757812 14.89300781 -0.64484375 14.78601563 -1.4921875 14.67578125 C-10.26222423 13.73396437 -18.02156901 13.77786873 -25.375 19.1875 C-32.23499668 26.53749645 -34.21626428 35.76137121 -34.31884766 45.609375 C-34.32889328 46.32255386 -34.3389389 47.03573273 -34.34928894 47.77052307 C-34.37985544 50.09700815 -34.39708109 52.42337963 -34.4140625 54.75 C-34.43279559 56.3752539 -34.45237057 58.0004983 -34.4727478 59.62573242 C-34.52384906 63.88021208 -34.56359181 68.1347232 -34.60089111 72.38934326 C-34.64106955 76.74010865 -34.69209842 81.09074567 -34.7421875 85.44140625 C-34.83868593 93.96085584 -34.92216906 102.4803594 -35 111 C-39.62 111 -44.24 111 -49 111 C-49 74.7 -49 38.4 -49 1 C-44.71 1 -40.42 1 -36 1 C-35.67 5.62 -35.34 10.24 -35 15 C-34.113125 13.7625 -33.22625 12.525 -32.3125 11.25 C-27.40117036 4.74363574 -22.17339752 1.4109266 -14.25 -0.75 C-9.46454556 -1.11811188 -4.74223855 -0.72708939 0 0 Z " fill="#FFFFFF" transform="translate(980,572)"/>
<path d="M0 0 C4.41026006 2.45014448 7.08812558 5.30125117 9.375 9.875 C10.13538689 16.69355126 9.6292913 21.42078038 5.375 26.875 C0.38540333 30.84631164 -3.70226374 31.51345459 -10.0390625 31.26171875 C-15.03158217 30.51510327 -17.66382944 27.9400809 -20.9375 24.3125 C-23.88394788 20.05651972 -24.15112219 15.91620717 -23.625 10.875 C-21.56700786 5.24260045 -18.49538819 2.38573063 -13.25 -0.375 C-8.46986287 -1.74075347 -4.73004006 -1.46794347 0 0 Z " fill="#FFFFFF" transform="translate(1758.625,528.125)"/>
</svg>
